<svg width="33" height="19" viewBox="0 0 33 19" fill="none" xmlns="http://www.w3.org/2000/svg">
<g id="Group">
<path id="Vector" d="M15.076 9.24688C12.5602 9.27816 12.4823 10.6944 10.6471 12.0019C7.99417 13.9132 9.23448 15.598 11.4513 15.9409C13.6083 16.2988 14.8842 14.8819 17.1406 14.9654C19.3769 14.9542 21.6352 16.3842 23.6115 16.039C25.5279 15.7089 25.5855 14.0483 21.5094 12.0758C18.7721 10.7658 17.6718 9.29535 15.076 9.24688Z" fill="#FBBD08"/>
<path id="Vector_2" d="M8.83759 8.333C10.6665 9.4988 11.2382 10.882 10.237 11.4291C9.23574 11.9762 6.85763 11.441 5.08767 10.2603C3.25879 9.09454 2.62813 7.72616 3.68829 7.16424C4.74845 6.60233 7.00871 7.1672 8.83759 8.333Z" fill="#FBBD08"/>
<path id="Vector_3" d="M21.4025 7.94744C20.3857 9.10003 20.807 10.4912 22.2855 11.069C23.7641 11.6467 25.7404 11.1519 26.6573 9.97442C27.6742 8.82183 27.2529 7.43063 25.7744 6.85291C24.2958 6.27518 22.3195 6.76997 21.4025 7.94744Z" fill="#FBBD08"/>
<path id="Vector_4" d="M13.6613 5.33394C14.6258 6.81487 14.1959 8.15395 12.6841 8.33703C11.1724 8.52011 9.10882 7.41395 8.14433 5.93302C7.17983 4.45209 7.60977 3.11302 9.12152 2.92994C10.6333 2.74686 12.6968 3.85301 13.6613 5.33394Z" fill="#FBBD08"/>
<path id="Vector_5" d="M15.1279 5.15431C15.2289 6.66217 16.6345 7.99134 18.2954 8.16841C19.9563 8.34549 21.2003 7.29174 21.0993 5.78389C20.9983 4.27603 19.5928 2.94687 17.9319 2.76979C16.271 2.59271 15.027 3.64646 15.1279 5.15431Z" fill="#FBBD08"/>
</g>
</svg>
