<svg width="71" height="73" viewBox="0 0 71 73" fill="none" xmlns="http://www.w3.org/2000/svg">
<g id="Group">
<path id="Vector" d="M34.2529 36.3565C28.4814 37.601 28.0224 43.1889 23.5204 49.1095C17.0609 57.7719 19.471 63.9011 24.394 64.3588C29.3171 64.8165 32.4172 58.7081 37.6668 58.0662C42.7862 57.093 47.6748 61.8056 52.11 59.575C56.6103 57.5101 57.0045 50.7926 48.2039 44.8163C42.3042 40.9099 40.0568 35.6768 34.2529 36.3565Z" fill="#3A9EFD"/>
<path id="Vector_2" d="M18.4944 33.9373C22.3649 38.2678 23.6654 43.8723 21.4248 46.4433C19.0289 49.0788 13.9708 47.7005 10.1003 43.37C6.22975 39.0394 4.92922 33.4349 7.16987 30.864C9.56578 28.2284 14.6238 29.6068 18.4944 33.9373Z" fill="#3A9EFD"/>
<path id="Vector_3" d="M47.3468 29.1285C44.826 34.2563 45.4299 39.6382 48.5266 41.2636C51.6234 42.889 56.2349 40.1936 58.7557 35.0658C61.2764 29.938 60.6726 24.5562 57.5759 22.9308C54.3167 21.3729 49.7052 24.0683 47.3468 29.1285Z" fill="#3A9EFD"/>
<path id="Vector_4" d="M30.0139 20.8317C32.1233 26.6734 30.848 32.4979 27.3925 33.7318C23.9369 34.9657 19.4298 31.1395 17.3205 25.2977C15.2111 19.456 16.4863 13.6315 19.9419 12.3976C23.3975 11.1637 27.9045 14.9899 30.0139 20.8317Z" fill="#3A9EFD"/>
<path id="Vector_5" d="M33.0745 20.1186C32.9836 25.9256 35.8749 30.4919 39.3603 30.5308C43.0026 30.5044 45.9515 25.9278 46.1052 20.2808C46.1961 14.4738 43.3048 9.90749 39.8194 9.8686C36.2712 9.66977 33.1653 14.3117 33.0745 20.1186Z" fill="#3A9EFD"/>
</g>
</svg>
