<svg width="51" height="46" viewBox="0 0 51 46" fill="none" xmlns="http://www.w3.org/2000/svg">
<g id="Group">
<path id="Vector" d="M26.6731 22.3755C21.4855 23.8837 22.0312 28.4456 18.7378 33.5711C14.0864 41.1035 17.3176 45.5632 22.1132 45.3461C26.7172 45.1246 28.6673 40.1314 33.2786 38.7727C37.8899 37.4139 43.2397 40.459 47.0893 38.2707C50.939 36.0824 50.2057 30.8664 41.0243 27.2477C34.7115 24.831 31.8596 21.0297 26.6731 22.3755Z" fill="#FFAA00"/>
<path id="Vector_2" d="M12.6727 22.5482C16.8752 25.08 18.958 29.1889 17.0259 31.4203C15.0937 33.6517 10.1084 33.5396 5.71515 30.8411C1.51264 28.3093 -0.570161 24.2003 1.36203 21.9689C3.29422 19.7375 8.27848 20.0121 12.6727 22.5482Z" fill="#FFAA00"/>
<path id="Vector_3" d="M37.8405 15.477C36.2791 19.6666 37.7867 23.7626 41.0411 24.6482C44.2954 25.5338 48.1482 22.8582 49.5178 18.6643C51.0791 14.4747 49.5716 10.3787 46.3172 9.49308C43.2546 8.61179 39.4019 11.2874 37.8405 15.477Z" fill="#FFAA00"/>
<path id="Vector_4" d="M20.4194 10.8608C23.0774 14.9827 22.8561 19.5274 19.7787 20.9206C16.7014 22.3138 11.9215 20.094 9.26348 15.972C6.60546 11.8501 6.82674 7.30544 9.90411 5.91224C12.9804 4.68151 17.5696 6.73453 20.4194 10.8608Z" fill="#FFAA00"/>
<path id="Vector_5" d="M23.1089 10.1088C24.0381 14.6793 27.4673 18.1686 31.1136 17.7631C34.5681 17.3533 36.7037 13.3392 35.7756 8.60619C34.8464 4.03567 31.4172 0.546349 27.7709 0.951834C24.3164 1.36163 22.1797 5.53825 23.1089 10.1088Z" fill="#FFAA00"/>
</g>
</svg>
